# xmcd
#
# Track frame offsets:
#	150
#	17040
#	33562
#	52515
#	71732
#	91732
#	114197
#	130842
#	147330
#	176467
#	193655
#
# Disc length: 2909 seconds
#
# Revision: 0
# Processed by: cddbd v1.4PL0 Copyright (c) Steve Scherf et al.
# Submitted via: dBpowerAMP V4.0
#
DISCID=8a0b5b0b
DTITLE=Savage Brothers - Ain't No Substitue - Live
DYEAR=1990
DGENRE=Blues
TTITLE0=Without You
TTITLE1=Rock Around the Block
TTITLE2=Kansas City
TTITLE3=You Know You're All Right
TTITLE4=You're Just in Time
TTITLE5=Life Must Go On
TTITLE6=Ain't No Substitue
TTITLE7=Seen Her Tonight
TTITLE8=Devil with the Blue Dress
TTITLE9=Don't Look At Me That Way
TTITLE10=Born to Be Wild
EXTD=
EXTT0=
EXTT1=
EXTT2=
EXTT3=
EXTT4=
EXTT5=
EXTT6=
EXTT7=
EXTT8=
EXTT9=
EXTT10=
PLAYORDER=
